<svg width="33" height="32" viewBox="0 0 33 32" fill="none" xmlns="http://www.w3.org/2000/svg">
<path d="M0 16.0773C0 7.2657 6.34948 0.309176 16.0286 0.309176C25.7077 0.309176 32.0571 7.2657 32.0571 16.0773C32.0571 19.2464 31.2054 22.1836 29.8116 24.5797L32.5217 26.8985L28.1081 32L25.1656 29.372C22.6878 30.9179 19.5905 31.8454 16.106 31.8454C6.34948 31.9227 0 25.0435 0 16.0773ZM7.74327 16.0773C7.74327 21.1787 11.1503 24.9662 15.9511 24.9662C17.1126 24.9662 18.2741 24.7343 19.2033 24.3478L16.648 22.1063L20.9843 17.0821L23.617 19.401C23.9267 18.3961 24.159 17.314 24.159 16.1546C24.159 11.1304 20.8294 7.34299 15.9511 7.34299C11.0729 7.34299 7.74327 11.0531 7.74327 16.0773Z" fill="#316FEA"/>
</svg>
